<svg id="visual" viewBox="0 0 900 600" width="900" height="600" xmlns="http://www.w3.org/2000/svg" xmlns:xlink="http://www.w3.org/1999/xlink" version="1.1"><rect x="0" y="0" width="900" height="600" fill="#FFC288"></rect><path d="M0 189L21.5 183C43 177 86 165 128.8 170.3C171.7 175.7 214.3 198.3 257.2 212.3C300 226.3 343 231.7 385.8 235.8C428.7 240 471.3 243 514.2 235.5C557 228 600 210 642.8 197.7C685.7 185.3 728.3 178.7 771.2 184.8C814 191 857 210 878.5 219.5L900 229L900 0L878.5 0C857 0 814 0 771.2 0C728.3 0 685.7 0 642.8 0C600 0 557 0 514.2 0C471.3 0 428.7 0 385.8 0C343 0 300 0 257.2 0C214.3 0 171.7 0 128.8 0C86 0 43 0 21.5 0L0 0Z" fill="#fea82f"></path><path d="M0 131L21.5 135.3C43 139.7 86 148.3 128.8 159.3C171.7 170.3 214.3 183.7 257.2 177.5C300 171.3 343 145.7 385.8 142.3C428.7 139 471.3 158 514.2 167.2C557 176.3 600 175.7 642.8 174.8C685.7 174 728.3 173 771.2 177.8C814 182.7 857 193.3 878.5 198.7L900 204L900 0L878.5 0C857 0 814 0 771.2 0C728.3 0 685.7 0 642.8 0C600 0 557 0 514.2 0C471.3 0 428.7 0 385.8 0C343 0 300 0 257.2 0C214.3 0 171.7 0 128.8 0C86 0 43 0 21.5 0L0 0Z" fill="#ff9921"></path><path d="M0 157L21.5 155.8C43 154.7 86 152.3 128.8 152.2C171.7 152 214.3 154 257.2 144.3C300 134.7 343 113.3 385.8 104.8C428.7 96.3 471.3 100.7 514.2 103.2C557 105.7 600 106.3 642.8 111.5C685.7 116.7 728.3 126.3 771.2 129C814 131.7 857 127.3 878.5 125.2L900 123L900 0L878.5 0C857 0 814 0 771.2 0C728.3 0 685.7 0 642.8 0C600 0 557 0 514.2 0C471.3 0 428.7 0 385.8 0C343 0 300 0 257.2 0C214.3 0 171.7 0 128.8 0C86 0 43 0 21.5 0L0 0Z" fill="#ff8a14"></path><path d="M0 63L21.5 69.7C43 76.3 86 89.7 128.8 98.5C171.7 107.3 214.3 111.7 257.2 107.8C300 104 343 92 385.8 92.2C428.7 92.3 471.3 104.7 514.2 103.5C557 102.3 600 87.7 642.8 86C685.7 84.3 728.3 95.7 771.2 99.7C814 103.7 857 100.3 878.5 98.7L900 97L900 0L878.5 0C857 0 814 0 771.2 0C728.3 0 685.7 0 642.8 0C600 0 557 0 514.2 0C471.3 0 428.7 0 385.8 0C343 0 300 0 257.2 0C214.3 0 171.7 0 128.8 0C86 0 43 0 21.5 0L0 0Z" fill="#ff7907"></path><path d="M0 48L21.5 46.8C43 45.7 86 43.3 128.8 39.5C171.7 35.7 214.3 30.3 257.2 27.5C300 24.7 343 24.3 385.8 26.7C428.7 29 471.3 34 514.2 34.2C557 34.3 600 29.7 642.8 27.3C685.7 25 728.3 25 771.2 27.7C814 30.3 857 35.7 878.5 38.3L900 41L900 0L878.5 0C857 0 814 0 771.2 0C728.3 0 685.7 0 642.8 0C600 0 557 0 514.2 0C471.3 0 428.7 0 385.8 0C343 0 300 0 257.2 0C214.3 0 171.7 0 128.8 0C86 0 43 0 21.5 0L0 0Z" fill="#ff6701"></path></svg>