<svg id="visual" viewBox="0 0 900 600" width="900" height="600" xmlns="http://www.w3.org/2000/svg" xmlns:xlink="http://www.w3.org/1999/xlink" version="1.1"><rect x="0" y="0" width="900" height="600" fill="#f6d860"></rect><path d="M0 502L15 507.2C30 512.3 60 522.7 90 529.8C120 537 150 541 180 536C210 531 240 517 270 506C300 495 330 487 360 492.8C390 498.7 420 518.3 450 519.8C480 521.3 510 504.7 540 498.2C570 491.7 600 495.3 630 504.7C660 514 690 529 720 528C750 527 780 510 810 498.8C840 487.7 870 482.3 885 479.7L900 477L900 601L885 601C870 601 840 601 810 601C780 601 750 601 720 601C690 601 660 601 630 601C600 601 570 601 540 601C510 601 480 601 450 601C420 601 390 601 360 601C330 601 300 601 270 601C240 601 210 601 180 601C150 601 120 601 90 601C60 601 30 601 15 601L0 601Z" fill="#95cd41" stroke-linecap="round" stroke-linejoin="miter"></path></svg>