<svg id="visual" viewBox="0 0 900 600" width="900" height="600" xmlns="http://www.w3.org/2000/svg" xmlns:xlink="http://www.w3.org/1999/xlink" version="1.1"><rect x="0" y="0" width="900" height="600" fill="#95cd41"></rect><path d="M0 479L15 481.3C30 483.7 60 488.3 90 491.7C120 495 150 497 180 492.5C210 488 240 477 270 477.3C300 477.7 330 489.3 360 498.8C390 508.3 420 515.7 450 510.5C480 505.3 510 487.7 540 477.8C570 468 600 466 630 468.8C660 471.7 690 479.3 720 492.5C750 505.7 780 524.3 810 520.5C840 516.7 870 490.3 885 477.2L900 464L900 601L885 601C870 601 840 601 810 601C780 601 750 601 720 601C690 601 660 601 630 601C600 601 570 601 540 601C510 601 480 601 450 601C420 601 390 601 360 601C330 601 300 601 270 601C240 601 210 601 180 601C150 601 120 601 90 601C60 601 30 601 15 601L0 601Z" fill="#f6d860" stroke-linecap="round" stroke-linejoin="miter"></path></svg>